<svg xmlns="http://www.w3.org/2000/svg" xmlns:xlink="http://www.w3.org/1999/xlink" id="svg" width="400" height="335.95166163141994" viewBox="0, 0, 400,335.95166163141994"><g id="svgg"><path id="path0" d="M178.248 0.947 L 169.789 1.414 163.735 10.064 C 160.011 15.386,154.664 20.997,149.838 24.646 L 141.994 30.577 140.275 19.518 C 138.265 6.588,138.654 6.776,124.471 11.858 C 113.408 15.822,113.406 15.831,117.884 35.811 C 127.462 78.541,147.167 113.217,174.448 135.347 L 181.152 140.785 181.210 238.369 L 181.269 335.952 193.958 335.952 L 206.647 335.952 206.647 218.223 L 206.647 100.495 210.389 89.824 C 214.352 78.527,222.261 61.688,225.792 57.034 L 227.904 54.249 240.910 57.901 C 266.163 64.992,297.248 67.742,324.982 65.339 C 347.140 63.419,346.859 64.365,329.561 49.942 L 318.941 41.088 303.580 41.084 C 281.085 41.079,250.144 36.559,249.918 33.244 C 249.821 31.814,264.006 23.912,272.508 20.660 L 278.550 18.349 272.895 15.901 C 250.782 6.326,244.568 5.848,234.605 12.958 C 209.379 30.959,181.338 78.303,181.251 103.039 L 181.233 108.157 176.997 103.323 C 168.950 94.141,161.864 83.571,156.452 72.680 C 148.092 55.856,148.089 55.909,157.904 49.363 C 174.321 38.413,184.863 26.662,193.211 10.004 C 198.783 -1.114,200.189 -0.264,178.248 0.947 M67.051 38.920 C 63.738 40.978,59.030 43.920,56.588 45.457 L 52.149 48.252 57.452 57.556 C 70.652 80.720,78.550 115.621,78.550 150.792 C 78.550 164.273,79.779 164.153,62.461 152.357 C 48.949 143.153,27.930 125.054,22.571 118.011 L 19.161 113.527 15.320 116.751 C 13.208 118.523,8.875 122.312,5.692 125.170 L -0.097 130.366 7.918 138.861 C 12.326 143.534,21.320 151.809,27.906 157.251 C 34.491 162.693,39.879 167.548,39.879 168.039 C 39.879 171.097,24.471 181.033,11.782 186.158 C 3.337 189.569,3.319 187.013,11.941 209.342 L 13.215 212.641 23.115 208.466 C 36.775 202.705,45.027 197.583,53.914 189.350 L 61.497 182.326 83.618 193.261 C 97.383 200.065,112.588 206.473,123.867 210.225 L 141.994 216.255 142.310 263.415 L 142.626 310.574 97.295 310.574 L 51.964 310.574 51.964 323.263 L 51.964 335.952 109.366 335.952 L 166.767 335.952 166.767 266.152 L 166.767 196.353 153.172 192.910 C 140.047 189.585,119.847 182.690,108.405 177.629 L 102.879 175.184 103.543 164.631 C 106.223 122.055,94.926 70.107,76.625 40.852 L 73.076 35.178 67.051 38.920 M262.626 86.097 C 253.588 103.068,250.128 114.508,249.269 130.263 C 248.699 140.714,248.232 142.893,246.350 143.901 C 245.118 144.560,238.944 150.926,232.629 158.048 L 221.148 170.997 221.148 253.474 L 221.148 335.952 279.154 335.952 L 337.160 335.952 337.160 323.263 L 337.160 310.574 291.843 310.574 L 246.526 310.574 246.526 244.907 L 246.526 179.239 255.287 170.252 C 272.450 152.646,290.225 140.295,312.396 130.572 L 324.077 125.449 332.081 133.491 C 348.296 149.786,375.272 161.934,395.245 161.934 C 400.942 161.934,400.906 162.372,396.373 148.224 L 392.747 136.903 384.595 134.891 C 371.894 131.757,352.870 121.878,352.870 118.417 C 352.870 117.903,359.124 116.538,366.767 115.382 C 374.411 114.227,380.665 113.053,380.665 112.774 C 380.665 111.574,376.331 104.001,371.891 97.443 L 367.091 90.354 359.812 91.178 C 339.966 93.423,310.423 103.047,288.921 114.271 C 281.997 117.885,276.096 120.608,275.810 120.321 C 274.956 119.467,278.001 111.131,282.331 102.470 L 286.382 94.365 278.236 89.912 C 273.756 87.463,268.882 84.718,267.406 83.812 C 264.916 82.284,264.568 82.451,262.626 86.097 " stroke="none" fill="#000000" fill-rule="evenodd"></path></g></svg>